# xmcd
#
# Track frame offsets: 
#        150
#        15525
#        30424
#        47870
#        63017
#        78140
#        94050
#        112699
#        128948
#        152122
#
# Disc length: 2216 seconds
#
# Revision: 0
# Processed by: cddbd v1.5.2PL0 Copyright (c) Steve Scherf et al.
# Submitted via: ExactAudioCopyFreeDBPlugin 1.0
#
DISCID=6908a60a
DTITLE=Johnny Holzum and Well Hungarians - Bona Fide
DYEAR=1900
DGENRE=Country
TTITLE0=Good God Almighty
TTITLE1=Red Cup
TTITLE2=That'll Make A Man Out Of You
TTITLE3=Simple Life
TTITLE4=Next Time I Leave
TTITLE5=Sorry 'Bout The Mess (V2.0)
TTITLE6=Let'm Fall
TTITLE7=Who I Am
TTITLE8=Wallet Size
TTITLE9=Million Memories
EXTD=
EXTT0=
EXTT1=
EXTT2=
EXTT3=
EXTT4=
EXTT5=
EXTT6=
EXTT7=
EXTT8=
EXTT9=
PLAYORDER=
